<?xml version="1.0" encoding="utf-8"?>
<!-- Generator: Adobe Illustrator 25.0.0, SVG Export Plug-In . SVG Version: 6.00 Build 0)  -->
<svg version="1.1" id="Ebene_1" xmlns="http://www.w3.org/2000/svg" x="0px"
     y="0px"
     viewBox="0 0 65 65" style="enable-background:new 0 0 65 65;" xml:space="preserve">
<style type="text/css">
	.st0{fill:#FFBC50;}
	.st1{fill:#FD980F;}
	.st2{fill:#EA5A47;}
	.st3{fill:none;stroke:#000000;stroke-width:2;stroke-linecap:round;stroke-linejoin:round;stroke-miterlimit:10;}
</style>
    <g id="Gruppe_70" transform="translate(124.927 -2817.419)">
	<g id="Gruppe_69" transform="translate(-126 2635)">
		<g id="_1F63B" transform="translate(3 188.25)">
			<g id="color">
				<path id="Pfad_178" class="st0" d="M56.4,42.6c-3.6,9.1-12.6,15.2-23.2,15.2c-9.1,0-19.2-5.8-22.8-15l-0.2-0.3
					c-1.1-2.9-1-6.4-1-9.6L13,0.5l10.2,10.1c3-1.3,6.2-1.9,9.5-1.9h1.1c3.3,0,6.5,0.7,9.5,1.9L54.5-0.5l3.7,33.9
					C58.2,36.5,57.6,39.7,56.4,42.6"/>
                <path id="Pfad_179" class="st1"
                      d="M33.2,57.8c10.6,0.3,20.3-6,23.9-15.1l0.1-0.2c1.2-3.2,1.7-6.7,1.8-10.2L54.7-0.3"/>
                <path id="Pfad_180" class="st2" d="M21.6,25c-1.4-3.6-6.8-3.7-6.5,1.5c0.1,0.7,0.3,1.4,0.7,2l5.7,6.9l0,0l5.6-6.8
					c0.6-0.7,1-1.7,1-2.7C28,21.2,22.7,21.5,21.6,25"/>
                <path id="Pfad_181" class="st2" d="M23.2,42.4c0,0,7.8,4.2,10.4-3.1c2.6,7.3,10.8,3.1,10.8,3.1s-2.7,4.4-3.5,5.2
					c-4,4.3-9.4,4.1-13.7,0.1C25.8,46,24.4,44.2,23.2,42.4z"/>
                <path id="Pfad_182" class="st2" d="M46.4,25.1c-1.4-3.6-6.9-3.8-6.6,1.4c0.1,0.7,0.3,1.4,0.7,2l5.7,6.9l0,0l5.6-6.8
					c0.6-0.7,1-1.7,1-2.7c-0.1-4.7-5.4-4.4-6.6-0.9"/>
			</g>
            <g id="line">
				<line id="Linie_71" class="st3" x1="59.8" y1="47.8" x2="50.3" y2="42.8"/>
                <path id="Pfad_183" class="st3" d="M50.4,40.7"/>
                <path id="Pfad_184" class="st3" d="M59.7,45.9"/>
                <line id="Linie_72" class="st3" x1="55.6" y1="53.1" x2="46.2" y2="47.9"/>
                <path id="Pfad_185" class="st3" d="M44.1,49"/>
                <path id="Pfad_186" class="st3" d="M53.5,54.2"/>
                <path id="Pfad_187" class="st3" d="M11.1,41.8C10,39,9.4,35.9,9.4,32.9L13,0.1l11,10.7C26.9,9.6,30,9,33.2,9h1
					c3.2,0,6.4,0.6,9.3,1.9l11-10.7l3.7,32.7c0,3.1-0.6,6.1-1.7,8.9"/>
                <path id="Pfad_188" class="st3" d="M20.6,53.2c3.8,2.4,8.2,3.6,12.6,3.6h1c4.5,0,8.9-1.2,12.6-3.6"/>
                <line id="Linie_73" class="st3" x1="7.8" y1="47.9" x2="17.1" y2="42.7"/>
                <path id="Pfad_189" class="st3" d="M17.1,40.7"/>
                <line id="Linie_74" class="st3" x1="11.9" y1="53.1" x2="21.3" y2="47.9"/>
                <path id="Pfad_190" class="st3" d="M23.4,49"/>
                <path id="Pfad_191" class="st3" d="M14,54.2"/>
                <path id="Pfad_192" class="st3" d="M21.6,25.1c-1.4-3.6-6.8-3.7-6.5,1.5c0.1,0.7,0.3,1.4,0.7,2l5.7,6.9l0,0l5.6-6.8
					c0.6-0.7,1-1.7,1-2.7C28,21.3,22.8,21.6,21.6,25.1"/>
                <path id="Pfad_192_1_" class="st3" d="M46.2,25.1c-1.4-3.6-6.8-3.7-6.5,1.5c0.1,0.7,0.3,1.4,0.7,2l5.7,6.9l0,0l5.6-6.8
					c0.6-0.7,1-1.7,1-2.7C52.7,21.3,47.4,21.6,46.2,25.1"/>
                <path id="Pfad_193" class="st3" d="M60.8,46"/>
                <line id="Linie_75" class="st3" x1="29.4" y1="39.2" x2="37.7" y2="39.2"/>
                <path id="Pfad_195" class="st3" d="M23.2,42.4c0,0,7.8,4.2,10.4-3.1c2.6,7.3,10.8,3.1,10.8,3.1s-2.7,4.4-3.5,5.2
					c-4,4.3-9.4,4.1-13.7,0.1C25.8,46,24.4,44.2,23.2,42.4z"/>
			</g>
		</g>
	</g>
</g>
</svg>
