<?xml version="1.0" encoding="utf-8"?>
<!-- Generator: Adobe Illustrator 25.0.0, SVG Export Plug-In . SVG Version: 6.00 Build 0)  -->
<svg version="1.1" id="Ebene_1" xmlns="http://www.w3.org/2000/svg" x="0px"
     y="0px"
     viewBox="0 0 65 65" style="enable-background:new 0 0 65 65;" xml:space="preserve">
<style type="text/css">
	.st0{fill:#FFBC50;}
	.st1{fill:#FD980F;}
	.st2{fill:#EA5A47;}
	.st3{fill:none;stroke:#000000;stroke-width:2;stroke-linecap:round;stroke-linejoin:round;stroke-miterlimit:10;}
</style>
    <g id="Gruppe_73" transform="translate(2341.908 -3299.415)">
	<g id="Gruppe_71" transform="translate(-2472.864 3117.762)">
		<g id="_1F638" transform="translate(133.759 188.294)">
			<g id="color">
				<path id="Pfad_161" class="st0" d="M52.4,39.8C48.8,49,39.7,55,29.2,55C20,55,9.9,49.1,6.3,40l-0.1-0.3C5,36.6,4.6,33.3,4.5,30
					L9.2-2.3l9.9,10.1c3-1.3,6.2-1.9,9.5-1.9h1.1c3.3,0,6.5,0.7,9.5,1.9L50.4-3.3l3.7,33.9C54.2,33.8,53.6,36.9,52.4,39.8"/>
                <path id="Pfad_162" class="st1"
                      d="M29.2,55c10.6,0.3,20.4-6.1,24-15.2l0.2-0.6c1.2-3.3,1.2-6.2,1.4-9.6L50.6-3"/>
                <path id="Pfad_163" class="st2" d="M19.3,39.5c0,0,7.8,4.2,10.4-3.1c2.6,7.3,10.8,3.1,10.8,3.1s-2.7,4.4-3.5,5.2
					c-4,4.3-9.4,4.1-13.7,0.1C21.9,43.1,20.6,41.4,19.3,39.5z"/>
			</g>
            <g id="line">
				<line id="Linie_66" class="st3" x1="55.7" y1="45.1" x2="46.3" y2="39.9"/>
                <path id="Pfad_164" class="st3" d="M46.3,37.9"/>
                <line id="Linie_67" class="st3" x1="51.5" y1="50.3" x2="42.2" y2="45.1"/>
                <path id="Pfad_165" class="st3" d="M40.1,46.2"/>
                <path id="Pfad_166" class="st3" d="M7,39c-1.1-2.8-1.7-5.9-1.7-9L8.9-2.7L19.9,8c2.9-1.2,6.1-1.9,9.3-1.9h1
					c3.2,0,6.4,0.6,9.3,1.9l11-10.7l3.6,32.8c0,3.1-0.6,6.1-1.7,9"/>
                <line id="Linie_68" class="st3" x1="3.7" y1="45.1" x2="13.1" y2="39.9"/>
                <path id="Pfad_167" class="st3" d="M13.1,37.9"/>
                <line id="Linie_69" class="st3" x1="7.9" y1="50.3" x2="17.2" y2="45.1"/>
                <path id="Pfad_168" class="st3" d="M19.3,46.2"/>
                <line id="Linie_70" class="st3" x1="25.3" y1="36.5" x2="33.7" y2="36.5"/>
                <path id="Pfad_169" class="st3" d="M19.1,39.6c0,0,7.8,4.2,10.4-3.1c2.6,7.3,10.8,3.1,10.8,3.1s-2.7,4.4-3.5,5.2
					c-4,4.3-9.4,4.1-13.7,0.1C21.7,43.2,20.4,41.4,19.1,39.6z"/>
                <path id="Pfad_170" class="st3" d="M49.4,51.2"/>
                <path id="Pfad_171" class="st3" d="M10,51.2"/>
                <path id="Pfad_172" class="st3" d="M49.4,51.2"/>
                <path id="Pfad_173" class="st3" d="M10,51.2"/>
                <path id="Pfad_174" class="st3" d="M57.7,46.3"/>
                <path id="Pfad_175" class="st3" d="M16.5,50.4c3.8,2.4,8.2,3.6,12.6,3.6h1c4.5,0,8.8-1.2,12.6-3.6"/>
                <path id="Pfad_176" class="st3" d="M48.9,28.8c-3.1-4.2-9.3-4.2-11.4,0"/>
                <path id="Pfad_177" class="st3" d="M10.5,28.8c3.1-4.2,9.3-4.2,11.4,0"/>
			</g>
		</g>
	</g>
</g>
</svg>
