<?xml version="1.0" encoding="utf-8"?>
<!-- Generator: Adobe Illustrator 25.0.0, SVG Export Plug-In . SVG Version: 6.00 Build 0)  -->
<svg version="1.1" id="Ebene_1" xmlns="http://www.w3.org/2000/svg" x="0px"
     y="0px"
     viewBox="0 0 65 65" style="enable-background:new 0 0 65 65;" xml:space="preserve">
<style type="text/css">
	.st0{fill:#FFBC50;}
	.st1{fill:#FD980F;}
	.st2{fill:#EA5A47;}
	.st3{fill:#FFFFFF;}
	.st4{fill:none;stroke:#000000;stroke-width:2;stroke-linecap:round;stroke-linejoin:round;stroke-miterlimit:10;}
	.st5{fill:none;stroke:#000000;stroke-width:2.0008;stroke-linecap:round;stroke-linejoin:round;stroke-miterlimit:10.0039;}
</style>
    <g id="Gruppe_75" transform="translate(2001.873 -3299.334)">
	<g id="Gruppe_70" transform="translate(-2584.27 3115.051)">
		<g id="_1F640" transform="translate(583.653 189.267)">
			<g id="color">
				<path id="Pfad_196" class="st0" d="M53.3,40.9c-3.5,9-12.5,14.8-22.9,14.8c-9,0-19-5.6-22.5-14.6l-0.1-0.3
					c-1.1-2.8-0.9-6.3-0.9-9.5l3.6-31.9l10.1,9.9c3-1.3,6.2-1.9,9.4-1.9h1.1c3.2,0,6.4,0.6,9.4,1.9L51.3-1.6L55,31.8
					C55,34.9,54.4,38,53.3,40.9"/>
                <path id="Pfad_197" class="st1"
                      d="M30.4,55.7C40.9,56,50.5,49.9,54,40.9l0.1-0.2c1.1-2.8,0.9-6.8,0.9-10L51.5-1.4"/>
                <ellipse id="Ellipse_14" class="st2" cx="30.9" cy="43.4" rx="6.5" ry="7.8"/>

                <ellipse id="Ellipse_15" transform="matrix(0.3339 -0.9426 0.9426 0.3339 -11.4096 35.4066)" class="st3"
                         cx="19.3" cy="25.8" rx="7.8" ry="6.5"/>

                <ellipse id="Ellipse_16" transform="matrix(0.9426 -0.3339 0.3339 0.9426 -6.2263 15.4026)" class="st3"
                         cx="41.7" cy="25.8" rx="6.5" ry="7.8"/>
                <path id="Pfad_198" class="st0" d="M10.2,56.6h9c0,0,1.4-13.4,0-15.8c-1-1.8-2.5-5.3-6.9-5.1c-1.6,0-6,1.3-4.7,5.3
					c1.8,5.4,3.4,4.5,4.3,6.2C13.1,49.3,10.2,56.6,10.2,56.6z"/>
                <path id="Pfad_199" class="st0" d="M51.2,56.6h-9c0,0-1.4-13.4,0-15.8c1-1.8,2.5-5.3,6.9-5.1c1.6,0,6,1.3,4.7,5.3
					c-1.8,5.4-3.4,4.5-4.3,6.2C48.3,49.3,51.2,56.6,51.2,56.6z"/>
			</g>
            <g id="line">
				<line id="Linie_76" class="st4" x1="56.5" y1="46.1" x2="52.7" y2="43.9"/>
                <path id="Pfad_200" class="st4" d="M47.3,38.9"/>
                <line id="Linie_77" class="st4" x1="52.4" y1="51.2" x2="49.3" y2="49.5"/>
                <path id="Pfad_201" class="st4" d="M41.2,47.1"/>
                <path id="Pfad_202" class="st4" d="M50.4,52.2"/>
                <path id="Pfad_203" class="st4" d="M7.8,37.9L7.8,37.9c-0.7-2.1-1-4.4-1-6.7l3.6-32.3L21.2,9.5c2.9-1.2,6-1.9,9.2-1.9h1
					c3.2,0,6.3,0.6,9.2,1.9L51.4-1.1L55,31.2c0,2.5-0.4,4.8-1.2,7.2"/>
                <path id="Pfad_204" class="st4" d="M19.6,52.2c3.3,1.7,7,2.6,10.8,2.6h1c3.6,0,7.2-0.8,10.4-2.4"/>
                <line id="Linie_78" class="st4" x1="8.8" y1="44.1" x2="5.2" y2="46.1"/>
                <path id="Pfad_205" class="st4" d="M14.5,38.9"/>
                <path id="Pfad_206" class="st4" d="M5.2,44"/>
                <line id="Linie_79" class="st4" x1="12.1" y1="49.7" x2="9.3" y2="51.2"/>
                <path id="Pfad_207" class="st4" d="M20.6,47.1"/>
                <path id="Pfad_208" class="st4" d="M11.4,52.2"/>
                <ellipse id="Ellipse_17" class="st4" cx="30.9" cy="43.4" rx="6.5" ry="7.8"/>

                <ellipse id="Ellipse_18" transform="matrix(0.3339 -0.9426 0.9426 0.3339 -11.4096 35.4066)" class="st5"
                         cx="19.3" cy="25.8" rx="7.8" ry="6.5"/>

                <ellipse id="Ellipse_19" transform="matrix(0.9426 -0.3339 0.3339 0.9426 -6.2263 15.4026)" class="st5"
                         cx="41.7" cy="25.8" rx="6.5" ry="7.8"/>
                <path id="Pfad_209" class="st4" d="M10.2,56.6h9c0,0,1.4-13.4,0-15.8c-1-1.8-2.5-5.3-6.9-5.1c-1.6,0-6,1.3-4.7,5.3
					c1.8,5.4,3.4,4.5,4.3,6.2C13.1,49.3,10.2,56.6,10.2,56.6z"/>
                <path id="Pfad_210" class="st4" d="M51.2,56.6h-9c0,0-1.4-13.4,0-15.8c1-1.8,2.5-5.3,6.9-5.1c1.6,0,6,1.3,4.7,5.3
					c-1.8,5.4-3.4,4.5-4.3,6.2C48.3,49.3,51.2,56.6,51.2,56.6z"/>
			</g>
		</g>
	</g>
</g>
</svg>
