<?xml version="1.0" encoding="utf-8"?>
<!-- Generator: Adobe Illustrator 25.0.0, SVG Export Plug-In . SVG Version: 6.00 Build 0)  -->
<svg version="1.1" id="Ebene_1" xmlns="http://www.w3.org/2000/svg" xmlns:xlink="http://www.w3.org/1999/xlink" x="0px" y="0px"
	 viewBox="0 0 60 60" style="enable-background:new 0 0 60 60;" xml:space="preserve">
<style type="text/css">
	.st0{fill:#FFBC50;}
	.st1{fill:none;stroke:#000000;stroke-width:2;stroke-miterlimit:10;}
	.st2{fill:none;stroke:#000000;stroke-width:2;stroke-linecap:round;stroke-linejoin:round;stroke-miterlimit:10;}
</style>
<g id="Gruppe_86" transform="translate(2060.078 -3695.761)">
	<g id="Gruppe_81" transform="translate(724 -367)">
		<g id="color" transform="translate(-2803 4044)">
			<circle id="Ellipse_30" class="st0" cx="32.9" cy="29.3" r="3"/>
			<circle id="Ellipse_31" class="st0" cx="67.9" cy="38.6" r="3"/>
			<circle id="Ellipse_32" class="st0" cx="41.9" cy="59.3" r="3"/>
			<path id="Pfad_224" class="st0" d="M27.3,39.4l3.1-2.7l4.8-0.2l3,2.8l0.7,4l-12.1,0L27.3,39.4z"/>
			<path id="Pfad_225" class="st0" d="M62.4,48.7l3.1-2.7l4.8-0.2l3,2.8l0.7,4l-12.1,0L62.4,48.7z"/>
			<path id="Pfad_226" class="st0" d="M36.4,69.4l3.1-2.7l4.8-0.2l3,2.8l0.7,4l-12.1,0L36.4,69.4z"/>
		</g>
		<g id="line" transform="translate(-2803 4044)">
			<circle id="Ellipse_33" class="st1" cx="32.9" cy="29.3" r="3"/>
			<path id="Pfad_227" class="st2" d="M26.9,42.3c0,0,1-4.3,3-5.3c1.9-1,4.1-1,6,0c2,1,3,5.3,3,5.3"/>
			<circle id="Ellipse_34" class="st1" cx="67.9" cy="38.6" r="3"/>
			<path id="Pfad_228" class="st2" d="M61.9,51.6c0,0,1-4.3,3-5.3c1.9-1,4.1-1,6,0c2,1,3,5.3,3,5.3"/>
			<circle id="Ellipse_35" class="st1" cx="41.9" cy="59.3" r="3"/>
			<path id="Pfad_229" class="st2" d="M35.9,72.3c0,0,1-4.3,3-5.3c1.9-1,4.1-1,6,0c2,1,3,5.3,3,5.3"/>
			<path id="Pfad_230" class="st2" d="M64.4,32.4c-6.2-7.3-16.4-10-25.4-6.7"/>
			<path id="Pfad_231" class="st2" d="M51.3,69.8c8.2-1.6,14.8-7.5,17.4-15.4"/>
			<path id="Pfad_232" class="st2" d="M24,45.2c-0.1,0.7-0.1,1.3-0.1,2c0,7.7,3.8,14.9,10.2,19.1"/>
		</g>
	</g>
</g>
</svg>
