<?xml version="1.0" encoding="utf-8"?>
<!-- Generator: Adobe Illustrator 25.0.0, SVG Export Plug-In . SVG Version: 6.00 Build 0)  -->
<svg version="1.1" id="Ebene_1" xmlns="http://www.w3.org/2000/svg" xmlns:xlink="http://www.w3.org/1999/xlink" x="0px" y="0px"
	 viewBox="0 0 60 60" style="enable-background:new 0 0 60 60;" xml:space="preserve">
<style type="text/css">
	.st0{fill:#FFFFFF;stroke:#FFFFFF;stroke-width:2;stroke-linejoin:round;}
	.st1{fill:#D0CFCE;}
	.st2{fill:#FFBC50;}
	.st3{fill:none;stroke:#000000;stroke-width:2;stroke-linecap:round;stroke-linejoin:round;}
</style>
<g id="Gruppe_85" transform="translate(2170.638 -3694.141)">
	<g id="Gruppe_80" transform="translate(615 -285)">
		<g id="color" transform="translate(-2802.541 3963.411)">
			<path id="Pfad_151" class="st0" d="M25.7,74l0.1-5.3l-5.3,0V17.9h28.9l5.3,5.3h11.3V74L25.7,74z"/>
			<path id="Pfad_152" class="st1" d="M60.5,29.5L49,17.5v12"/>
			<path id="Pfad_153" class="st2" d="M65.4,35.9h7.9v5.2h-7.9l-1.9-2.6L65.4,35.9z"/>
			<path id="Pfad_154" class="st2" d="M60.1,56H68v5.2h-7.9l-1.9-2.6L60.1,56z"/>
		</g>
		<g id="line" transform="translate(-2802.541 3963.411)">
			<path id="Pfad_155" class="st3" d="M66,35.6V23.1H54.7"/>
			<line id="Linie_60" class="st3" x1="65.9" y1="55.4" x2="65.9" y2="41.6"/>
			<path id="Pfad_156" class="st3" d="M25.7,71.9v2H66V61.6"/>
			<path id="Pfad_157" class="st3" d="M60.7,55.9V29.2L49.4,17.9H20.4v50.8h40.2v-7.4"/>
			<path id="Pfad_158" class="st3" d="M60.7,29.5H49.3l0-11.6"/>
			<path id="Pfad_159" class="st3" d="M65.5,41.1l-1.9-2.6l1.9-2.6h7.9v5.2H65.5z"/>
			<path id="Pfad_160" class="st3" d="M60.2,61.2l-1.9-2.6l1.9-2.6h7.9v5.2H60.2z"/>
			<line id="Linie_61" class="st3" x1="26.8" y1="27.4" x2="41.6" y2="27.4"/>
			<line id="Linie_62" class="st3" x1="26.8" y1="35.9" x2="54.3" y2="35.9"/>
			<line id="Linie_63" class="st3" x1="26.8" y1="43.3" x2="54.3" y2="43.3"/>
			<line id="Linie_64" class="st3" x1="26.8" y1="51.7" x2="54.3" y2="51.7"/>
			<line id="Linie_65" class="st3" x1="26.8" y1="60.2" x2="54.3" y2="60.2"/>
		</g>
	</g>
</g>
</svg>
