<?xml version="1.0" encoding="utf-8"?>
<!-- Generator: Adobe Illustrator 25.0.0, SVG Export Plug-In . SVG Version: 6.00 Build 0)  -->
<svg version="1.1" id="Ebene_1" xmlns="http://www.w3.org/2000/svg" xmlns:xlink="http://www.w3.org/1999/xlink" x="0px" y="0px"
	 viewBox="0 0 60 60" style="enable-background:new 0 0 60 60;" xml:space="preserve">
<style type="text/css">
	.st0{fill:#9B9B9A;}
	.st1{fill:#D0CFCE;}
	.st2{fill:#FFBC50;}
	.st3{fill:none;stroke:#000000;stroke-width:2;stroke-miterlimit:10;}
	.st4{fill:none;stroke:#000000;stroke-width:2;stroke-linecap:round;stroke-linejoin:round;stroke-miterlimit:10;}
</style>
<g id="Gruppe_84" transform="translate(2284.924 -3700.246)">
	<g id="Gruppe_79" transform="translate(503 -203)">
		<g id="color" transform="translate(-2802.943 3881.007)">
			<path id="Pfad_216" class="st0" d="M24.5,70.7c-1.7,0-3-1.3-3-3v-8.9v-3.4c0-0.1,0.1-0.2,0.2-0.2c0.1,0,0.1,0,0.2,0.1l3.8,3.3
				c0.1,0.1,0.3,0.2,0.5,0.2h23.3c1.7,0,3,1.3,3,3v6c0,1.7-1.3,3-3,3H24.5z"/>
			<path id="Pfad_217" class="st1" d="M67.1,48.2c0.1,0.1,0.3,0.1,0.4,0c0,0,0.1-0.1,0.1-0.2v-3.2l0,0v-9c0-1.7-1.4-3-3-3H39.6
				c-1.7,0-3,1.4-3,3v6c0,1.7,1.4,3,3,3l0,0h23.3c0.2,0,0.4,0.1,0.5,0.2L67.1,48.2z"/>
		</g>
		<g id="skin" transform="translate(-2802.943 3881.007)">
			<circle id="Ellipse_26" class="st2" cx="21.5" cy="35.8" r="3"/>
			<circle id="Ellipse_27" class="st2" cx="67.6" cy="57.8" r="3"/>
			<path id="Pfad_218" class="st2" d="M16.9,46l3.1-2.7l4.8-0.2l3,2.8l0.7,4l-12.1,0L16.9,46z"/>
			<path id="Pfad_219" class="st2" d="M62.1,67.9l3.1-2.7L70,65l3,2.8l0.7,4l-12.1,0L62.1,67.9z"/>
		</g>
		<g id="line" transform="translate(-2802.943 3881.007)">
			<circle id="Ellipse_28" class="st3" cx="22.5" cy="35.8" r="3"/>
			<path id="Pfad_220" class="st4" d="M16.5,48.8c0,0,1-4.3,3-5.3c1.9-1,4.1-1,6,0c2,1,3,5.3,3,5.3"/>
			<circle id="Ellipse_29" class="st3" cx="67.6" cy="57.8" r="3"/>
			<path id="Pfad_221" class="st4" d="M61.6,70.8c0,0,1-4.3,3-5.3c1.9-1,4.1-1,6,0c2,1,3,5.3,3,5.3"/>
			<path id="Pfad_222" class="st3" d="M25.5,70.7c-1.7,0-3-1.3-3-3v-8.9v-3.4c0-0.1,0.1-0.2,0.2-0.2c0.1,0,0.1,0,0.2,0.1l3.8,3.3
				c0.1,0.1,0.3,0.2,0.5,0.2h23.3c1.7,0,3,1.3,3,3v6c0,1.7-1.3,3-3,3H25.5z"/>
			<path id="Pfad_223" class="st3" d="M67.1,48.2c0.1,0.1,0.3,0.1,0.4,0c0,0,0.1-0.1,0.1-0.2v-3.2l0,0v-9c0-1.7-1.4-3-3-3H39.6
				c-1.7,0-3,1.4-3,3v6c0,1.7,1.4,3,3,3l0,0h23.3c0.2,0,0.4,0.1,0.5,0.2L67.1,48.2z"/>
		</g>
	</g>
</g>
</svg>
