<?xml version="1.0" encoding="utf-8"?>
<!-- Generator: Adobe Illustrator 25.0.0, SVG Export Plug-In . SVG Version: 6.00 Build 0)  -->
<svg version="1.1" id="Ebene_1" xmlns="http://www.w3.org/2000/svg" x="0px"
     y="0px"
     viewBox="0 0 60 60" style="enable-background:new 0 0 60 60;" xml:space="preserve">
<style type="text/css">
	.st0{fill:#FFBC50;}
	.st1{fill:#FFFFFF;}
	.st2{fill:none;stroke:#000000;stroke-width:2;stroke-linecap:round;stroke-linejoin:round;}
</style>
    <g id="Gruppe_83" transform="translate(2393.5 -3695.509)">
	<g id="Gruppe_78" transform="translate(392 -124)">
		<g id="color" transform="translate(-2801.843 3803.056)">
			<circle id="Ellipse_20" class="st0" cx="46.4" cy="46.5" r="27"/>
            <circle id="Ellipse_21" class="st1" cx="46.5" cy="46.5" r="21.9"/>
		</g>
        <g id="line" transform="translate(-2801.843 3803.056)">
			<path id="Pfad_211" class="st2" d="M65.6,35.8c5.9,10.5,2.1,23.9-8.4,29.7s-23.9,2.1-29.7-8.4s-2.1-23.9,8.4-29.7
				c6.7-3.8,15-3.7,21.6,0.2"/>
            <path id="Pfad_212" class="st2" d="M73.4,46.5c0,14.9-12.1,27-27.1,27c-14.9,0-27-12.1-27-27.1s12.1-27,27.1-27
				c8.6,0,16.7,4.1,21.8,11"/>
            <path id="Pfad_213" class="st2" d="M57.8,32l11-1.2l-1.2-11"/>
            <path id="Pfad_214" class="st2" d="M60.4,46.8H46.3V29"/>
            <line id="Linie_80" class="st2" x1="46.3" y1="64.4" x2="46.3" y2="60.5"/>
            <path id="Pfad_215" class="st2" d="M31.6,46.8h-3.1"/>
            <circle id="Ellipse_22" cx="46.3" cy="46.8" r="3.7"/>
            <circle id="Ellipse_23" cx="59.1" cy="58.4" r="1.5"/>
            <circle id="Ellipse_24" cx="33.5" cy="35.2" r="1.5"/>
            <circle id="Ellipse_25" cx="33.5" cy="58.4" r="1.5"/>
		</g>
	</g>
</g>
</svg>
