<?xml version="1.0" encoding="utf-8"?>
<!-- Generator: Adobe Illustrator 25.0.0, SVG Export Plug-In . SVG Version: 6.00 Build 0)  -->
<svg version="1.1" id="Ebene_1" xmlns="http://www.w3.org/2000/svg" xmlns:xlink="http://www.w3.org/1999/xlink" x="0px" y="0px"
	 viewBox="0 0 60 60" style="enable-background:new 0 0 60 60;" xml:space="preserve">
<style type="text/css">
	.st0{fill:#FFFFFF;}
	.st1{fill:#FFBC50;}
	.st2{fill:none;stroke:#000000;stroke-width:2;stroke-linecap:round;stroke-linejoin:round;stroke-miterlimit:10;}
</style>
<g id="Gruppe_82" transform="translate(2500.406 -3697.601)">
	<g id="color" transform="translate(-2519.05 3679.037)">
		<path id="Pfad_148" class="st0" d="M24.7,72.5h47.9V24.6H24.7V72.5z"/>
		<path id="Pfad_149" class="st1" d="M43.2,52.8l-8,12.6l3.3,2.2l5.5-8.9c0.3-0.4,8.9,2.5,8.9,2.5l10.9-25.8l-3.7-1.6l-9.4,21.5
			C50.5,55.9,43.2,52.8,43.2,52.8z"/>
	</g>
	<g id="line" transform="translate(-2519.05 3679.037)">
		<path id="Pfad_150" class="st2" d="M60.1,33.9L50.8,56l-7.6-3.2l-8,12.6l3.3,2.2l6-9.7l4.7,1.8l3.7,1.6l10.9-25.8L60.1,33.9z"/>
		<rect id="Rechteck_212" x="24.7" y="24.6" class="st2" width="47.9" height="47.9"/>
		<line id="Linie_48" class="st2" x1="62.7" y1="48.7" x2="72.4" y2="48.7"/>
		<line id="Linie_49" class="st2" x1="25.4" y1="48.7" x2="49.8" y2="48.7"/>
		<line id="Linie_50" class="st2" x1="57.7" y1="60.6" x2="72.3" y2="60.6"/>
		<line id="Linie_51" class="st2" x1="25.4" y1="60.6" x2="33.5" y2="60.6"/>
		<line id="Linie_52" class="st2" x1="60.8" y1="53.1" x2="60.9" y2="72"/>
		<line id="Linie_53" class="st2" x1="60.7" y1="24.7" x2="60.7" y2="29.8"/>
		<line id="Linie_54" class="st2" x1="48.8" y1="64.3" x2="48.8" y2="72.2"/>
		<line id="Linie_55" class="st2" x1="48.8" y1="25" x2="48.8" y2="50.5"/>
		<line id="Linie_56" class="st2" x1="36.9" y1="71.2" x2="36.9" y2="72.2"/>
		<line id="Linie_57" class="st2" x1="36.9" y1="24.6" x2="36.9" y2="55.7"/>
		<line id="Linie_58" class="st2" x1="67.8" y1="36.8" x2="71.9" y2="36.8"/>
		<line id="Linie_59" class="st2" x1="24.9" y1="36.8" x2="54.4" y2="36.8"/>
	</g>
</g>
</svg>
